<svg viewBox="0 0 520 1040" xmlns="http://www.w3.org/2000/svg" font-family="-apple-system, 'SF Pro Display', 'Helvetica Neue', Arial, sans-serif">
  <defs>
    <linearGradient id="wall" x1="0" y1="0" x2="1" y2="1">
      <stop offset="0%" stop-color="#c3ccd4"/>
      <stop offset="35%" stop-color="#cbb9a8"/>
      <stop offset="70%" stop-color="#9a7d83"/>
      <stop offset="100%" stop-color="#5d4f57"/>
    </linearGradient>
    <radialGradient id="blob" cx="45%" cy="78%" r="55%">
      <stop offset="0%" stop-color="#6b2f4a" stop-opacity="0.55"/>
      <stop offset="100%" stop-color="#6b2f4a" stop-opacity="0"/>
    </radialGradient>
    <linearGradient id="sprout" x1="0" y1="0" x2="0" y2="1">
      <stop offset="0%" stop-color="#3ec46d"/>
      <stop offset="100%" stop-color="#1f9d52"/>
    </linearGradient>
    <linearGradient id="appStore" x1="0" y1="0" x2="0" y2="1"><stop offset="0%" stop-color="#34aadc"/><stop offset="100%" stop-color="#1d8ec9"/></linearGradient>
    <linearGradient id="weatherG" x1="0" y1="0" x2="0" y2="1"><stop offset="0%" stop-color="#3a8fe0"/><stop offset="100%" stop-color="#1f6fc4"/></linearGradient>
    <filter id="dim" x="-20%" y="-20%" width="140%" height="140%">
      <feColorMatrix type="saturate" values="0.45"/>
      <feComponentTransfer><feFuncR type="linear" slope="0.62"/><feFuncG type="linear" slope="0.62"/><feFuncB type="linear" slope="0.62"/></feComponentTransfer>
    </filter>
    <radialGradient id="halo" cx="50%" cy="50%" r="50%">
      <stop offset="0%" stop-color="#9bf7bf" stop-opacity="0.95"/>
      <stop offset="35%" stop-color="#54e08a" stop-opacity="0.6"/>
      <stop offset="70%" stop-color="#2ecf73" stop-opacity="0.2"/>
      <stop offset="100%" stop-color="#2ecf73" stop-opacity="0"/>
    </radialGradient>
    <filter id="softblur" x="-50%" y="-50%" width="200%" height="200%"><feGaussianBlur stdDeviation="6"/></filter>
    <filter id="iconglow" x="-60%" y="-60%" width="220%" height="220%">
      <feGaussianBlur stdDeviation="4" result="b"/>
      <feMerge><feMergeNode in="b"/><feMergeNode in="SourceGraphic"/></feMerge>
    </filter>
    <filter id="deviceShadow" x="-30%" y="-20%" width="160%" height="140%">
      <feDropShadow dx="0" dy="10" stdDeviation="16" flood-color="#1a1a1a" flood-opacity="0.32"/>
    </filter>
    <clipPath id="screenClip"><rect x="65" y="76" width="390" height="847" rx="42"/></clipPath>
  </defs>

  <rect width="520" height="1040" fill="none"/>
  <rect x="51" y="62" width="418" height="875" rx="62" fill="#1c1c1e" filter="url(#deviceShadow)"/>
  <rect x="54" y="65" width="412" height="869" rx="59" fill="none" stroke="#3a3a3c" stroke-width="2"/>
  <rect x="61" y="72" width="398" height="855" rx="48" fill="#000000"/>

  <g clip-path="url(#screenClip)">
    <g transform="translate(65,76)">
      <rect width="390" height="847" fill="url(#wall)"/>
      <rect width="390" height="847" fill="url(#blob)"/>

      <g filter="url(#dim)">
      <text x="32" y="50" fill="#ffffff" font-size="16" font-weight="600">16:24</text>
      <g transform="translate(302,38)" fill="#ffffff">
        <rect x="0" y="8" width="3" height="5" rx="1"/>
        <rect x="5" y="5" width="3" height="8" rx="1"/>
        <rect x="10" y="2" width="3" height="11" rx="1" opacity="0.4"/>
        <rect x="15" y="0" width="3" height="13" rx="1" opacity="0.4"/>
      </g>
      <path d="M328 42 a14 14 0 0 1 20 0 M332 46 a8 8 0 0 1 12 0" stroke="#ffffff" stroke-width="1.6" fill="none"/>
      <circle cx="338" cy="50" r="1.8" fill="#ffffff"/>
      <rect x="354" y="38" width="24" height="12" rx="3" fill="none" stroke="#ffffff" stroke-opacity="0.6"/>
      <rect x="356" y="40" width="18" height="8" rx="1.5" fill="#34c759"/>
      <rect x="379" y="41.5" width="2" height="5" rx="1" fill="#ffffff" opacity="0.7"/>
      <path d="M364 39 l-3 6 h3 l-1 5 5 -7 h-3 z" fill="#ffffff"/>

      <rect x="143" y="22" width="104" height="30" rx="15" fill="#000000"/>

      <!-- Row 1 -->
      <g transform="translate(38,96)">
        <rect width="58" height="58" rx="14" fill="#5b8def"/>
        <rect x="15" y="20" width="28" height="19" rx="4" fill="#ffffff"/>
        <path d="M16 22 l13 9 13 -9" fill="none" stroke="#5b8def" stroke-width="2.4" stroke-linejoin="round"/>
        <text x="29" y="74" fill="#fff" font-size="11" text-anchor="middle">Email</text>
      </g>
      <g transform="translate(128,96)">
        <rect width="58" height="58" rx="14" fill="#34c759"/>
        <rect x="14" y="20" width="22" height="18" rx="4" fill="#ffffff"/>
        <path d="M38 25 l8 -5 v18 l-8 -5 z" fill="#ffffff"/>
        <text x="29" y="74" fill="#fff" font-size="10" text-anchor="middle">Video call</text>
      </g>
      <g transform="translate(218,96)">
        <rect width="58" height="58" rx="14" fill="#ffffff"/>
        <rect x="14" y="14" width="30" height="30" rx="4" fill="#ffffff" stroke="#e0e0e0"/>
        <rect x="14" y="14" width="30" height="9" rx="4" fill="#4285f4"/>
        <text x="29" y="39" fill="#4285f4" font-size="15" font-weight="700" text-anchor="middle">31</text>
        <text x="29" y="74" fill="#fff" font-size="10.5" text-anchor="middle">Calendar</text>
      </g>
      <g transform="translate(308,96)">
        <rect width="58" height="58" rx="14" fill="#ffffff"/>
        <g transform="translate(29,29)">
          <path d="M0 -13 a8 8 0 0 1 0 13 z" fill="#fbbc05"/>
          <path d="M0 -13 a8 8 0 0 0 0 13 z" fill="#ea4335"/>
          <path d="M11 -6 a8 8 0 0 1 -11 6 z" fill="#34a853"/>
          <path d="M11 6 a8 8 0 0 1 -11 -6 z" fill="#4285f4"/>
          <path d="M-11 6 a8 8 0 0 1 11 -6 z" fill="#fbbc05"/>
          <path d="M-11 -6 a8 8 0 0 1 11 6 z" fill="#ea4335"/>
          <circle r="4" fill="#ffffff"/>
        </g>
        <text x="29" y="74" fill="#fff" font-size="11" text-anchor="middle">Photos</text>
      </g>

      <!-- Row 2 -->
      <g transform="translate(38,186)">
        <rect width="58" height="58" rx="14" fill="#1a1a1a"/>
        <circle cx="29" cy="29" r="18" fill="#fff"/>
        <line x1="29" y1="29" x2="29" y2="17" stroke="#000" stroke-width="2"/>
        <line x1="29" y1="29" x2="38" y2="33" stroke="#ff9500" stroke-width="2"/>
        <text x="29" y="74" fill="#fff" font-size="11" text-anchor="middle">Clock</text>
      </g>
      <g transform="translate(128,186)">
        <rect width="58" height="58" rx="14" fill="#ffffff"/>
        <path d="M29 14 a13 13 0 1 1 0 26 a13 13 0 1 1 0 -26z" fill="#34a853"/>
        <circle cx="29" cy="27" r="6" fill="#fff"/>
        <path d="M29 40 l-6 -10 h12 z" fill="#ea4335"/>
        <text x="29" y="74" fill="#fff" font-size="10.5" text-anchor="middle">Maps</text>
      </g>
      <g transform="translate(218,186)">
        <rect width="58" height="58" rx="14" fill="url(#weatherG)"/>
        <circle cx="24" cy="24" r="7" fill="#ffd60a"/>
        <ellipse cx="34" cy="32" rx="13" ry="9" fill="#ffffff"/>
        <ellipse cx="22" cy="33" rx="9" ry="7" fill="#f0f4f8"/>
        <text x="29" y="74" fill="#fff" font-size="11" text-anchor="middle">Weather</text>
      </g>
      <g transform="translate(308,186)">
        <rect width="58" height="58" rx="14" fill="#ffffff"/>
        <rect x="14" y="14" width="30" height="30" rx="3" fill="#ffffff" stroke="#e0e0e0"/>
        <rect x="14" y="14" width="30" height="7" rx="3" fill="#ffcc00"/>
        <line x1="19" y1="28" x2="39" y2="28" stroke="#dfe3e8" stroke-width="2"/>
        <line x1="19" y1="34" x2="39" y2="34" stroke="#dfe3e8" stroke-width="2"/>
        <text x="29" y="74" fill="#fff" font-size="11" text-anchor="middle">Notes</text>
      </g>

      <!-- Row 3 -->
      <g transform="translate(38,276)">
        <rect width="58" height="58" rx="14" fill="url(#appStore)"/>
        <path d="M29 16 l9 18 h-18 z M24 38 h10 M21 38 l-3 4 M37 38 l3 4" stroke="#ffffff" stroke-width="2.4" fill="none" stroke-linejoin="round" stroke-linecap="round"/>
        <text x="29" y="74" fill="#fff" font-size="10.5" text-anchor="middle">App Store</text>
      </g>
      <g transform="translate(128,276)">
        <rect width="58" height="58" rx="14" fill="#e9e9e9"/>
        <rect x="16" y="14" width="26" height="30" rx="3" fill="#1c1c1e"/>
        <rect x="20" y="18" width="18" height="6" rx="1" fill="#ff9500"/>
        <g fill="#3a3a3c"><circle cx="23" cy="30" r="2"/><circle cx="29" cy="30" r="2"/><circle cx="35" cy="30" r="2"/><circle cx="23" cy="37" r="2"/><circle cx="29" cy="37" r="2"/></g>
        <circle cx="35" cy="37" r="2" fill="#ff9500"/>
        <text x="29" y="74" fill="#fff" font-size="10.5" text-anchor="middle">Calculator</text>
      </g>
      <g transform="translate(218,276)">
        <rect width="58" height="58" rx="14" fill="#b8b8b8"/>
        <circle cx="29" cy="29" r="13" fill="none" stroke="#5a5a5a" stroke-width="5" stroke-dasharray="3 2.5"/>
        <circle cx="29" cy="29" r="5" fill="#8a8a8a"/>
        <circle cx="48" cy="11" r="9" fill="#ff3b30"/>
        <text x="48" y="15" fill="#fff" font-size="11" font-weight="700" text-anchor="middle">2</text>
        <text x="29" y="74" fill="#fff" font-size="11" text-anchor="middle">Settings</text>
      </g>
      <g transform="translate(308,276)">
        <rect width="58" height="58" rx="14" fill="#1c1c1e"/>
        <g stroke="#ff3b30" stroke-width="1.6">
          <line x1="16" y1="29" x2="16" y2="29"/><line x1="19" y1="24" x2="19" y2="34"/>
          <line x1="22" y1="20" x2="22" y2="38"/><line x1="25" y1="16" x2="25" y2="42"/>
          <line x1="28" y1="22" x2="28" y2="36"/><line x1="31" y1="18" x2="31" y2="40"/>
          <line x1="34" y1="24" x2="34" y2="34"/><line x1="37" y1="20" x2="37" y2="38"/>
          <line x1="40" y1="26" x2="40" y2="32"/><line x1="43" y1="23" x2="43" y2="35"/>
        </g>
        <line x1="40" y1="14" x2="40" y2="44" stroke="#0a84ff" stroke-width="1.4"/>
        <circle cx="40" cy="14" r="2.4" fill="#0a84ff"/>
        <text x="29" y="74" fill="#fff" font-size="10" text-anchor="middle">Voice Memos</text>
      </g>

      <!-- Row 4 -->
      <g transform="translate(38,366)">
        <rect width="58" height="58" rx="14" fill="#ffffff"/>
        <circle cx="29" cy="29" r="15" fill="none" stroke="#3a8fe0" stroke-width="2.2"/>
        <ellipse cx="29" cy="29" rx="6.5" ry="15" fill="none" stroke="#3a8fe0" stroke-width="1.6"/>
        <line x1="14" y1="29" x2="44" y2="29" stroke="#3a8fe0" stroke-width="1.6"/>
        <line x1="17" y1="21" x2="41" y2="21" stroke="#3a8fe0" stroke-width="1.4"/>
        <line x1="17" y1="37" x2="41" y2="37" stroke="#3a8fe0" stroke-width="1.4"/>
        <text x="29" y="74" fill="#fff" font-size="10.5" text-anchor="middle">Browser</text>
      </g>
      <g transform="translate(128,366)">
        <rect width="58" height="58" rx="14" fill="#2e9e4f"/>
        <circle cx="29" cy="29" r="15" fill="#3cb863"/>
        <text x="29" y="35" fill="#1c6b34" font-size="18" font-weight="700" text-anchor="middle">$</text>
        <text x="29" y="74" fill="#fff" font-size="11" text-anchor="middle">Currency</text>
      </g>
      <g transform="translate(218,366)">
        <rect width="58" height="58" rx="14" fill="#34c759"/>
        <path d="M20 18 q-3 0 -3 4 q1 12 11 19 q5 3 8 0 l3 -3 q1 -2 -1 -3 l-5 -3 q-2 -1 -3 1 q-4 -2 -6 -6 q2 -1 1 -3 l-3 -5 q-1 -1 -2 -1 z" fill="#ffffff"/>
        <text x="29" y="74" fill="#fff" font-size="11" text-anchor="middle">Phone</text>
      </g>
      <g transform="translate(308,366)">
        <rect width="58" height="58" rx="14" fill="#ff8c42"/>
        <path d="M18 24 h22 l-2 20 h-18 z" fill="#ffffff"/>
        <path d="M24 26 v-2 a5 5 0 0 1 10 0 v2" fill="none" stroke="#ffffff" stroke-width="2.2"/>
        <text x="29" y="74" fill="#fff" font-size="10" text-anchor="middle">Shopping</text>
      </g>

      <!-- Row 5 -->
      <g transform="translate(38,456)">
        <rect width="58" height="58" rx="14" fill="#3a7afe"/>
        <text x="20" y="32" fill="#ffffff" font-size="16" font-weight="700" text-anchor="middle" font-family="Georgia, serif">A</text>
        <text x="38" y="42" fill="#cfe0ff" font-size="14" font-weight="700" text-anchor="middle" font-family="Georgia, serif">&#25991;</text>
        <path d="M28 38 h10 M33 36 v4" stroke="#ffffff" stroke-width="1.4" stroke-linecap="round" opacity="0.0"/>
        <text x="29" y="74" fill="#fff" font-size="9.5" text-anchor="middle">Translate</text>
      </g>
      <g transform="translate(128,456)">
        <rect width="58" height="58" rx="14" fill="#34c759"/>
        <path d="M18 40 q-2 0 -1 -2 l2 -5 a13 13 0 1 1 5 5 l-5 2 q-1 0.5 -1 0z" fill="#ffffff"/>
        <circle cx="48" cy="11" r="10" fill="#ff3b30"/>
        <text x="48" y="15" fill="#fff" font-size="10.5" font-weight="700" text-anchor="middle">44</text>
        <text x="29" y="74" fill="#fff" font-size="11" text-anchor="middle">Messages</text>
      </g>

      <!-- Search pill -->
      <g transform="translate(150,648)">
        <rect width="90" height="34" rx="17" fill="#000000" opacity="0.28"/>
        <circle cx="18" cy="17" r="5" fill="none" stroke="#ffffff" stroke-width="1.6"/>
        <line x1="22" y1="21" x2="25" y2="24" stroke="#ffffff" stroke-width="1.6"/>
        <text x="32" y="22" fill="#ffffff" font-size="13" font-weight="500">Search</text>
      </g>

      <!-- Dock -->
      <g transform="translate(20,716)">
        <rect width="350" height="100" rx="34" fill="#ffffff" opacity="0.22"/>
        <g transform="translate(26,21)">
          <rect width="58" height="58" rx="14" fill="#25d366"/>
          <path d="M18 40 q-2 0 -1 -2 l2 -5 a13 13 0 1 1 5 5 l-5 2 q-1 0.5 -1 0z" fill="#ffffff"/>
          <circle cx="48" cy="11" r="10" fill="#ff3b30"/>
          <text x="48" y="15" fill="#fff" font-size="11" font-weight="700" text-anchor="middle">1</text>
        </g>
        <g transform="translate(110,21)">
          <rect width="58" height="58" rx="14" fill="#3a3a3c"/>
          <circle cx="29" cy="30" r="10" fill="none" stroke="#d0d0d0" stroke-width="2.5"/>
          <circle cx="29" cy="30" r="4.5" fill="#b0b0b0"/>
          <rect x="20" y="18" width="8" height="4" rx="1.5" fill="#d0d0d0"/>
          <circle cx="42" cy="20" r="2" fill="#ffd60a"/>
        </g>
        <g transform="translate(194,21)">
          <rect width="58" height="58" rx="14" fill="#fb5b6b"/>
          <g fill="#ffffff">
            <path d="M26 18 l12 -3 v4 l-12 3 z"/>
            <rect x="24" y="20" width="2.5" height="17"/>
            <rect x="36" y="17" width="2.5" height="15"/>
            <circle cx="22" cy="38" r="4"/>
            <circle cx="34" cy="33" r="4"/>
          </g>
        </g>
        <!-- Sprout slot empty here; drawn brightly on top -->
      </g>
      </g>
      <!-- end dim layer -->

      <rect width="390" height="847" fill="#0a1410" opacity="0.32"/>

      <!-- Spotlit Sprout icon -->
      <circle cx="327" cy="763" r="120" fill="url(#halo)" filter="url(#softblur)"/>
      <circle cx="327" cy="763" r="78" fill="url(#halo)" opacity="0.8"/>
      <circle cx="327" cy="763" r="46" fill="none" stroke="#ffffff" stroke-width="2" opacity="0.35"/>
      <circle cx="327" cy="763" r="54" fill="none" stroke="#ffffff" stroke-width="1" opacity="0.18"/>
      <g transform="translate(327,763) scale(1.18) translate(-29,-29)" filter="url(#iconglow)">
        <rect width="58" height="58" rx="14" fill="url(#sprout)"/>
        <rect width="58" height="58" rx="14" fill="#ffffff" opacity="0.14"/>
        <rect y="20" width="58" height="38" rx="14" fill="#1f9d52" opacity="0.55"/>
        <path d="M29 44 C29 34 24 30 19 28 C26 27 31 31 31 40 Z" fill="#ffffff" opacity="0.28"/>
        <path d="M31 40 C31 31 36 27 43 26 C40 33 37 37 31 41 Z" fill="#ffffff" opacity="0.28"/>
        <text x="29" y="40" fill="#ffffff" font-size="34" font-weight="800" text-anchor="middle" font-family="Georgia, 'Times New Roman', serif">S</text>
      </g>
      <circle cx="327" cy="763" r="34" fill="#ffffff" opacity="0.10"/>

      <rect x="125" y="824" width="140" height="5" rx="2.5" fill="#16331f" opacity="0.55"/>
    </g>
  </g>
</svg>
