<svg viewBox="0 0 520 1040" xmlns="http://www.w3.org/2000/svg" xmlns:xlink="http://www.w3.org/1999/xlink" font-family="-apple-system, 'SF Pro Display', 'Helvetica Neue', Arial, sans-serif">
  <defs>
    <linearGradient id="sprout" x1="0" y1="0" x2="0" y2="1"><stop offset="0%" stop-color="#3ec46d"/><stop offset="100%" stop-color="#1f9d52"/></linearGradient>
    <linearGradient id="headerFade" x1="0" y1="0" x2="0" y2="1"><stop offset="0%" stop-color="#178043"/><stop offset="20%" stop-color="#1f9d52"/><stop offset="100%" stop-color="#f4f7f4"/></linearGradient>
    <linearGradient id="card1" x1="0" y1="0" x2="1" y2="1"><stop offset="0%" stop-color="#2bb45f"/><stop offset="100%" stop-color="#0f5e30"/></linearGradient>
    <radialGradient id="tabGlow" cx="50%" cy="50%" r="50%"><stop offset="0%" stop-color="#ffffff" stop-opacity="0.55"/><stop offset="100%" stop-color="#ffffff" stop-opacity="0"/></radialGradient>
    <filter id="deviceShadow" x="-30%" y="-20%" width="160%" height="140%"><feDropShadow dx="0" dy="10" stdDeviation="16" flood-color="#1a1a1a" flood-opacity="0.32"/></filter>
    <filter id="camShadow" x="-50%" y="-50%" width="200%" height="200%"><feDropShadow dx="0" dy="3" stdDeviation="5" flood-color="#0c5a2e" flood-opacity="0.5"/></filter>
    <filter id="cardShadow" x="-30%" y="-30%" width="160%" height="160%"><feDropShadow dx="0" dy="4" stdDeviation="8" flood-color="#16331f" flood-opacity="0.18"/></filter>
    <clipPath id="screenClip"><rect x="65" y="76" width="390" height="847" rx="42"/></clipPath>
  </defs>
  <rect width="520" height="1040" fill="none"/>
  <rect x="51" y="62" width="418" height="875" rx="62" fill="#1c1c1e" filter="url(#deviceShadow)"/>
  <rect x="54" y="65" width="412" height="869" rx="59" fill="none" stroke="#3a3a3c" stroke-width="2"/>
  <rect x="61" y="72" width="398" height="855" rx="48" fill="#000000"/>
  <g clip-path="url(#screenClip)">
    <g transform="translate(65,76)">
      <rect width="390" height="847" fill="#f4f7f4"/>
      <rect y="0" width="390" height="230" fill="url(#headerFade)"/>
      <text x="32" y="50" fill="#ffffff" font-size="16" font-weight="600">16:29</text>
      <g transform="translate(302,38)" fill="#ffffff"><rect x="0" y="8" width="3" height="5" rx="1"/><rect x="5" y="5" width="3" height="8" rx="1"/><rect x="10" y="2" width="3" height="11" rx="1"/><rect x="15" y="0" width="3" height="13" rx="1"/></g>
      <path d="M328 42 a14 14 0 0 1 20 0 M332 46 a8 8 0 0 1 12 0" stroke="#ffffff" stroke-width="1.6" fill="none"/>
      <circle cx="338" cy="50" r="1.8" fill="#ffffff"/>
      <rect x="354" y="38" width="24" height="12" rx="3" fill="none" stroke="#ffffff" stroke-opacity="0.6"/><rect x="356" y="40" width="18" height="8" rx="1.5" fill="#ffffff"/>
      <rect x="143" y="22" width="104" height="30" rx="15" fill="#000000"/>
      <g transform="translate(20,72)"><rect width="30" height="30" rx="8" fill="#ffffff"/><text x="15" y="22" fill="#1f9d52" font-size="19" font-weight="800" text-anchor="middle" font-family="Georgia, serif">S</text></g>
      <text x="58" y="93" fill="#ffffff" font-size="19" font-weight="700" font-family="Georgia, serif">Learning Centre</text>

      <!-- Programme progress banner -->
      <g transform="translate(20,128)">
        <rect width="350" height="74" rx="18" fill="#ffffff" filter="url(#cardShadow)"/>
        <text x="18" y="28" fill="#16331f" font-size="14" font-weight="800">Sustainable Living  &#183;  Week 4 of 4</text>
        <text x="18" y="46" fill="#7a8a7e" font-size="11">17 of 20 lessons done  &#183;  51 pts earned</text>
        <!-- progress bar -->
        <rect x="18" y="56" width="270" height="8" rx="4" fill="#e6ece7"/>
        <rect x="18" y="56" width="230" height="8" rx="4" fill="url(#sprout)"/>
        <g transform="translate(300,28)"><text x="20" y="10" font-size="11" fill="#16331f" font-weight="800" text-anchor="middle">17/20</text><text x="20" y="26" fill="#1f9d52" font-size="8" font-weight="700" text-anchor="middle">lessons</text></g>
      </g>

      <!-- daily progress strip -->
      <g transform="translate(20,210)">
        <rect width="350" height="30" rx="15" fill="#e9f8f0" stroke="#cdeede"/>
        <circle cx="20" cy="15" r="8" fill="#1f9d52"/><path d="M16 15 l3 3 5 -6" stroke="#ffffff" stroke-width="1.8" fill="none" stroke-linecap="round" stroke-linejoin="round"/>
        <text x="36" y="20" fill="#0f5e30" font-size="11" font-weight="700">Today's lesson ready</text>
        <text x="336" y="20" fill="#1f9d52" font-size="11.5" font-weight="800" text-anchor="end">+3 pts</text>
      </g>

      <!-- TODAY'S DECK (featured) -->
      <text x="20" y="266" fill="#16331f" font-size="12" font-weight="700">TODAY'S DECK  &#183;  WEEK 4</text>
      <g transform="translate(20,276)" filter="url(#cardShadow)">
        <rect width="350" height="104" rx="20" fill="url(#card1)"/>
        <text x="20" y="22" fill="#bdebcd" font-size="10.5" font-weight="700">2-MIN READ  &#183;  SWIPE THROUGH  &#183;  +3 PTS</text>
        <text x="20" y="46" fill="#ffffff" font-size="17" font-weight="800">Why cigarette filters</text>
        <text x="20" y="66" fill="#ffffff" font-size="17" font-weight="800">never really break down</text>
        <g transform="translate(20,76)"><rect width="78" height="20" rx="10" fill="#ffffff"/><text x="39" y="14" fill="#1f7d46" font-size="10.5" font-weight="700" text-anchor="middle">Start &#9654;</text></g>
        <circle cx="305" cy="52" r="30" fill="#ffffff" opacity="0.12"/><g transform="translate(305,52)" stroke="#ffffff" stroke-width="2.4" fill="none" stroke-linecap="round"><path d="M0 14 V -2"/><path d="M0 2 C -2 -10 -12 -12 -16 -12 C -16 -4 -10 2 0 2 Z" fill="#ffffff" opacity="0.9" stroke="none"/><path d="M0 -2 C 2 -14 12 -16 16 -16 C 16 -8 10 -2 0 -2 Z" fill="#ffffff" stroke="none"/></g>
      </g>

      <!-- THIS WEEK list -->
      <text x="20" y="406" fill="#16331f" font-size="12" font-weight="700">THIS WEEK</text>
      <text x="370" y="406" fill="#7a8a7e" font-size="11" text-anchor="end">3 of 5</text>
      <g transform="translate(20,416)">
        <!-- done -->
        <rect width="350" height="46" rx="13" fill="#ffffff" stroke="#eef2ee"/>
        <rect x="10" y="9" width="28" height="28" rx="8" fill="#e9f8f0"/><g transform="translate(24,23)" stroke="#1f9d52" stroke-width="1.5" fill="none"><circle cx="-6" cy="4" r="4"/><circle cx="6" cy="4" r="4"/><path d="M-6 4 L-1 -4 H4 M-1 -4 L3 4 M-3 -4 H1" stroke-linecap="round" stroke-linejoin="round"/></g>
        <text x="48" y="22" fill="#16331f" font-size="12.5" font-weight="700">Cut your commute carbon</text>
        <text x="48" y="36" fill="#7a8a7e" font-size="10">Done  &#183;  +3 pts</text>
        <circle cx="332" cy="23" r="10" fill="#1f9d52"/><path d="M327 23 l3 3 6 -6" stroke="#ffffff" stroke-width="1.7" fill="none"/>
        <!-- done -->
        <rect y="54" width="350" height="46" rx="13" fill="#ffffff" stroke="#eef2ee"/>
        <rect x="10" y="63" width="28" height="28" rx="8" fill="#e9f8f0"/><path d="M24 70 C 19 76 18 80 18 82 a6 6 0 0 0 12 0 C 30 80 29 76 24 70 Z" fill="#1f9d52"/>
        <text x="48" y="76" fill="#16331f" font-size="12.5" font-weight="700">The truth about bottled water</text>
        <text x="48" y="90" fill="#7a8a7e" font-size="10">Done  &#183;  +3 pts</text>
        <circle cx="332" cy="77" r="10" fill="#1f9d52"/><path d="M327 77 l3 3 6 -6" stroke="#ffffff" stroke-width="1.7" fill="none"/>
        <!-- done -->
        <rect y="108" width="350" height="46" rx="13" fill="#ffffff" stroke="#eef2ee"/>
        <rect x="10" y="117" width="28" height="28" rx="8" fill="#e9f8f0"/><g transform="translate(24,131)" fill="#1f9d52"><path d="M0 -10 L5 -2 L2 -2 L2 2 L-2 2 L-2 -2 L-5 -2 Z"/><g transform="rotate(120)"><path d="M0 -10 L5 -2 L2 -2 L2 2 L-2 2 L-2 -2 L-5 -2 Z"/></g><g transform="rotate(240)"><path d="M0 -10 L5 -2 L2 -2 L2 2 L-2 2 L-2 -2 L-5 -2 Z"/></g></g>
        <text x="48" y="130" fill="#16331f" font-size="12.5" font-weight="700">Recycling myths, busted</text>
        <text x="48" y="144" fill="#7a8a7e" font-size="10">Done  &#183;  +3 pts</text>
        <circle cx="332" cy="131" r="10" fill="#1f9d52"/><path d="M327 131 l3 3 6 -6" stroke="#ffffff" stroke-width="1.7" fill="none"/>
        <!-- today -->
        <rect y="162" width="350" height="46" rx="13" fill="#ffffff" stroke="#cdeede" stroke-width="1.5"/>
        <rect x="10" y="171" width="28" height="28" rx="8" fill="#e9f8f0"/><g transform="translate(24,185)" fill="#1f9d52"><path d="M0 8 V -1" stroke="#1f9d52" stroke-width="1.5" stroke-linecap="round"/><path d="M0 2 C -1 -6 -8 -7 -10 -7 C -10 -2 -6 2 0 2 Z"/><path d="M0 -1 C 1 -9 8 -10 10 -10 C 10 -5 6 -1 0 -1 Z"/></g>
        <text x="48" y="184" fill="#16331f" font-size="12.5" font-weight="700">Why filters never really break down</text>
        <text x="48" y="198" fill="#1f9d52" font-size="10" font-weight="700">Today  &#183;  tap to start  &#183;  +3 pts</text>
        <path d="M326 185 l10 0 m0 0 l-4.5 -4.5 m4.5 4.5 l-4.5 4.5" stroke="#1f9d52" stroke-width="2.1" fill="none" stroke-linecap="round" stroke-linejoin="round"/>
        <!-- locked -->
        <rect y="216" width="350" height="46" rx="13" fill="#ffffff" stroke="#eef2ee" opacity="0.7"/>
        <rect x="10" y="225" width="28" height="28" rx="8" fill="#eef2ee"/><g transform="translate(24,239)"><rect x="-5" y="0" width="10" height="8" rx="1.5" fill="#9aa89d"/><path d="M-3 0 V -3 a3 3 0 0 1 6 0 V 0" stroke="#9aa89d" stroke-width="1.5" fill="none"/></g>
        <text x="48" y="238" fill="#9aa89d" font-size="12.5" font-weight="700">Fast fashion's hidden cost</text>
        <text x="48" y="252" fill="#b7c2ba" font-size="10">Unlocks Friday</text>
      </g>

      <!-- COMPLETED WEEKS (collapsed history) -->
      <g transform="translate(20,698)">
        <rect width="350" height="44" rx="13" fill="#ffffff" stroke="#eef2ee"/>
        <text x="14" y="20" fill="#16331f" font-size="12" font-weight="700">Lesson Archive</text>
        <text x="14" y="35" fill="#7a8a7e" font-size="10">Weeks 1-3 complete  &#183;  15/15 lessons</text>
        <text x="336" y="28" fill="#1f9d52" font-size="14" text-anchor="end">&#8250;</text>
      </g>

      <!-- TAB BAR (Learn active) -->
      <g transform="translate(0,759)">
        <rect width="390" height="88" fill="#ffffff"/>
        <line x1="0" y1="0" x2="390" y2="0" stroke="#e3e9e3" stroke-width="1"/>
        <g transform="translate(33,22)"><rect x="0" y="0" width="22" height="22" rx="4" fill="none" stroke="#9aa89d" stroke-width="2.2"/><line x1="4" y1="7" x2="18" y2="7" stroke="#9aa89d" stroke-width="2.2"/><line x1="4" y1="12" x2="18" y2="12" stroke="#9aa89d" stroke-width="2.2"/><line x1="4" y1="17" x2="13" y2="17" stroke="#9aa89d" stroke-width="2.2"/></g>
        <text x="44" y="62" fill="#9aa89d" font-size="10" font-weight="600" text-anchor="middle">Feed</text>
        <circle cx="124" cy="34" r="26" fill="url(#tabGlow)"/>
        <g transform="translate(113,23)" stroke="#1f9d52" stroke-width="2" fill="none"><path d="M2 4 h9 a3 3 0 0 1 3 3 v15 a3 3 0 0 0 -3 -2 h-9 z"/><path d="M24 4 h-9 a3 3 0 0 0 -3 3 v15 a3 3 0 0 1 3 -2 h9 z"/></g>
        <text x="124" y="62" fill="#1f9d52" font-size="10" font-weight="700" text-anchor="middle">Learn</text>
        <circle cx="195" cy="28" r="30" fill="url(#sprout)" filter="url(#camShadow)"/><circle cx="195" cy="28" r="30" fill="#ffffff" opacity="0.08"/>
        <g transform="translate(195,28)" stroke="#ffffff" stroke-width="2.4" fill="none"><rect x="-13" y="-9" width="26" height="19" rx="5"/><circle cx="0" cy="1" r="6"/><rect x="-6" y="-13" width="9" height="5" rx="2" fill="#ffffff" stroke="none"/></g>
        <g transform="translate(258,22)" stroke="#9aa89d" stroke-width="2" fill="none"><rect x="0" y="12" width="7" height="12" rx="1.5"/><rect x="9" y="4" width="7" height="20" rx="1.5"/><rect x="18" y="16" width="7" height="8" rx="1.5"/></g>
        <text x="271" y="62" fill="#9aa89d" font-size="10" font-weight="600" text-anchor="middle">Ranks</text>
        <g transform="translate(338,22)" stroke="#9aa89d" stroke-width="2" fill="none"><circle cx="11" cy="8" r="6"/><path d="M0 24 a11 11 0 0 1 22 0"/></g>
        <text x="349" y="62" fill="#9aa89d" font-size="10" font-weight="600" text-anchor="middle">Profile</text>
      </g>
      <rect x="125" y="833" width="140" height="5" rx="2.5" fill="#16331f" opacity="0.35"/>
    </g>
  </g>
</svg>
