<svg viewBox="0 0 520 1040" xmlns="http://www.w3.org/2000/svg" xmlns:xlink="http://www.w3.org/1999/xlink" font-family="-apple-system, 'SF Pro Display', 'Helvetica Neue', Arial, sans-serif">
  <defs>
    <linearGradient id="sprout" x1="0" y1="0" x2="0" y2="1">
      <stop offset="0%" stop-color="#3ec46d"/><stop offset="100%" stop-color="#1f9d52"/>
    </linearGradient>
    <linearGradient id="hero" x1="0" y1="0" x2="1" y2="1">
      <stop offset="0%" stop-color="#2bb45f"/><stop offset="100%" stop-color="#0f5e30"/>
    </linearGradient>
    <linearGradient id="headerFade" x1="0" y1="0" x2="0" y2="1">
      <stop offset="0%" stop-color="#1f9d52"/><stop offset="100%" stop-color="#f4f7f4"/>
    </linearGradient>
    <linearGradient id="heroFadeA" x1="0" y1="0" x2="0" y2="1">
      <stop offset="0%" stop-color="#2bb45f"/>
      <stop offset="55%" stop-color="#1f9d52"/>
      <stop offset="78%" stop-color="#7fc99b"/>
      <stop offset="100%" stop-color="#f4f7f4"/>
    </linearGradient>
    <radialGradient id="tabGlow" cx="50%" cy="50%" r="50%">
      <stop offset="0%" stop-color="#ffffff" stop-opacity="0.55"/><stop offset="100%" stop-color="#ffffff" stop-opacity="0"/>
    </radialGradient>
    <radialGradient id="avatarGlow" cx="50%" cy="50%" r="50%">
      <stop offset="0%" stop-color="#ffffff" stop-opacity="0.35"/><stop offset="100%" stop-color="#ffffff" stop-opacity="0"/>
    </radialGradient>
    <filter id="deviceShadow" x="-50%" y="-40%" width="200%" height="190%">
      <feDropShadow dx="0" dy="8" stdDeviation="22" flood-color="#000000" flood-opacity="0.7"/>
    </filter>
    <filter id="camShadow" x="-50%" y="-50%" width="200%" height="200%">
      <feDropShadow dx="0" dy="3" stdDeviation="5" flood-color="#0c5a2e" flood-opacity="0.5"/>
    </filter>
    <clipPath id="screenClip"><rect x="65" y="76" width="390" height="847" rx="42"/></clipPath>
    <path id="shieldBadge" d="M0 -24 L20 -16 V -2 C20 12 11 21 0 25 C-11 21 -20 12 -20 -2 V -16 Z" fill="none" stroke="#1f9d52" stroke-width="2.2" stroke-linejoin="round"/>
  </defs>

  <rect x="51" y="62" width="418" height="875" rx="62" fill="#1c1c1e" filter="url(#deviceShadow)"/>
  <rect x="54" y="65" width="412" height="869" rx="59" fill="none" stroke="#3a3a3c" stroke-width="2"/>
  <rect x="61" y="72" width="398" height="855" rx="48" fill="#000000"/>

  <g clip-path="url(#screenClip)">
    <g transform="translate(65,76)">
      <rect width="390" height="847" fill="#f4f7f4"/>

      <!-- Green fading gradient header (stays green behind avatar/name, fades into page) -->
      <rect width="390" height="300" fill="url(#heroFadeA)"/>
      <!-- leaf motif -->
      <path d="M330 40 C355 70 356 110 344 150 C328 110 322 72 330 40z" fill="#ffffff" opacity="0.06"/>

      <!-- Status bar -->
      <text x="32" y="50" fill="#ffffff" font-size="16" font-weight="600">16:35</text>
      <g transform="translate(302,38)" fill="#ffffff">
        <rect x="0" y="8" width="3" height="5" rx="1"/><rect x="5" y="5" width="3" height="8" rx="1"/>
        <rect x="10" y="2" width="3" height="11" rx="1"/><rect x="15" y="0" width="3" height="13" rx="1"/>
      </g>
      <path d="M328 42 a14 14 0 0 1 20 0 M332 46 a8 8 0 0 1 12 0" stroke="#ffffff" stroke-width="1.6" fill="none"/>
      <circle cx="338" cy="50" r="1.8" fill="#ffffff"/>
      <rect x="354" y="38" width="24" height="12" rx="3" fill="none" stroke="#ffffff" stroke-opacity="0.7"/>
      <rect x="356" y="40" width="18" height="8" rx="1.5" fill="#ffffff"/>
      <rect x="143" y="22" width="104" height="30" rx="15" fill="#000000"/>

      <!-- settings gear top right -->
      <g transform="translate(344,84)">
        <circle cx="13" cy="13" r="17" fill="#ffffff" opacity="0.15"/>
        <g transform="translate(13,13)" fill="#ffffff">
          <g id="cogteeth">
            <rect x="-1.6" y="-11" width="3.2" height="4.4" rx="1"/>
          </g>
          <use href="#cogteeth" transform="rotate(45)"/>
          <use href="#cogteeth" transform="rotate(90)"/>
          <use href="#cogteeth" transform="rotate(135)"/>
          <use href="#cogteeth" transform="rotate(180)"/>
          <use href="#cogteeth" transform="rotate(225)"/>
          <use href="#cogteeth" transform="rotate(270)"/>
          <use href="#cogteeth" transform="rotate(315)"/>
          <circle cx="0" cy="0" r="7.5"/>
        </g>
        <circle cx="13" cy="13" r="3.6" fill="#1f9d52"/>
      </g>

      <!-- Avatar with level ring -->
      <circle cx="195" cy="118" r="46" fill="url(#avatarGlow)"/>
      <circle cx="195" cy="118" r="40" fill="#ffffff" opacity="0.18"/>
      <circle cx="195" cy="118" r="36" fill="#d9f2e2"/>
      <text x="195" y="130" fill="#1f7d46" font-size="34" font-weight="800" text-anchor="middle" font-family="Georgia, serif">JS</text>
      <!-- add-photo plus on avatar -->
      <g transform="translate(169,144)">
        <circle cx="0" cy="0" r="11" fill="#1f9d52" stroke="#ffffff" stroke-width="2.5"/>
        <line x1="-4.5" y1="0" x2="4.5" y2="0" stroke="#ffffff" stroke-width="2.2" stroke-linecap="round"/>
        <line x1="0" y1="-4.5" x2="0" y2="4.5" stroke="#ffffff" stroke-width="2.2" stroke-linecap="round"/>
      </g>
      <!-- level badge: flower (Flowering Tree level) -->
      <g transform="translate(222,142)">
        <circle cx="0" cy="0" r="15" fill="#ffd874" stroke="#ffffff" stroke-width="2"/>
        <g transform="translate(0,0)">
          <g fill="#ec6fa6">
            <ellipse cx="0" cy="-5.5" rx="2.8" ry="4.6"/>
            <ellipse cx="0" cy="-5.5" rx="2.8" ry="4.6" transform="rotate(72)"/>
            <ellipse cx="0" cy="-5.5" rx="2.8" ry="4.6" transform="rotate(144)"/>
            <ellipse cx="0" cy="-5.5" rx="2.8" ry="4.6" transform="rotate(216)"/>
            <ellipse cx="0" cy="-5.5" rx="2.8" ry="4.6" transform="rotate(288)"/>
          </g>
          <circle cx="0" cy="0" r="3" fill="#ffd874" stroke="#e0a325" stroke-width="0.8"/>
        </g>
      </g>

      <text x="195" y="186" fill="#ffffff" font-size="20" font-weight="700" text-anchor="middle">Jane Smith</text>
      <text x="195" y="206" fill="#bdebcd" font-size="12" text-anchor="middle">Marketing  &#183;  Leaf It Up to Marketing</text>

      <!-- LEVEL card overlapping hero -->
      <rect x="20" y="232" width="350" height="92" rx="20" fill="#ffffff" filter="url(#camShadow)"/>
      <text x="38" y="262" fill="#16331f" font-size="16" font-weight="800">Flowering Tree</text>
      <g transform="translate(166,256)">
        <g fill="#ec6fa6">
          <ellipse cx="0" cy="-4" rx="2" ry="3.3"/>
          <ellipse cx="0" cy="-4" rx="2" ry="3.3" transform="rotate(72)"/>
          <ellipse cx="0" cy="-4" rx="2" ry="3.3" transform="rotate(144)"/>
          <ellipse cx="0" cy="-4" rx="2" ry="3.3" transform="rotate(216)"/>
          <ellipse cx="0" cy="-4" rx="2" ry="3.3" transform="rotate(288)"/>
        </g>
        <circle cx="0" cy="0" r="2.2" fill="#ffd874"/>
      </g>
      <text x="38" y="280" fill="#7a8a7e" font-size="11">Level 6  &#183;  in full bloom</text>
      <text x="352" y="262" fill="#1f9d52" font-size="13" font-weight="700" text-anchor="end">1,240 pts</text>
      <!-- progress to next -->
      <rect x="38" y="292" width="314" height="10" rx="5" fill="#e6ece7"/>
      <rect x="38" y="292" width="196" height="10" rx="5" fill="url(#sprout)"/>
      <text x="38" y="318" fill="#7a8a7e" font-size="10.5">+560 pts to Grove</text>
      <!-- next-level (Grove) tree icon -->
      <g transform="translate(146,314)">
        <circle cx="0" cy="-3" r="6.5" fill="#2f9e54"/>
        <circle cx="-4.5" cy="0" r="5" fill="#3ec46d"/>
        <circle cx="4.5" cy="0" r="5" fill="#3ec46d"/>
        <rect x="-1" y="2" width="2" height="4" fill="#7a5a3a"/>
      </g>

      <!-- Stat trio -->
      <g transform="translate(20,344)">
        <rect width="112" height="64" rx="16" fill="#ffffff" stroke="#e8ede8"/>
        <text x="56" y="32" fill="#1f9d52" font-size="20" font-weight="800" text-anchor="middle">46</text>
        <text x="56" y="50" fill="#7a8a7e" font-size="10.5" text-anchor="middle">acts logged</text>

        <rect x="119" y="0" width="112" height="64" rx="16" fill="#ffffff" stroke="#e8ede8"/>
        <text x="175" y="32" fill="#1f9d52" font-size="20" font-weight="800" text-anchor="middle">20</text>
        <text x="175" y="50" fill="#7a8a7e" font-size="10.5" text-anchor="middle">day streak</text>

        <rect x="238" y="0" width="112" height="64" rx="16" fill="#ffffff" stroke="#e8ede8"/>
        <text x="294" y="32" fill="#1f9d52" font-size="20" font-weight="800" text-anchor="middle">12</text>
        <text x="294" y="50" fill="#7a8a7e" font-size="10.5" text-anchor="middle">badges</text>
      </g>

      <!-- Badges row -->
      <text x="24" y="438" fill="#16331f" font-size="13" font-weight="700">Badges earned</text>
      <text x="356" y="438" fill="#1f9d52" font-size="12" font-weight="600" text-anchor="end">See all</text>
      <g transform="translate(20,450)">
        <g transform="translate(0,0)"><use href="#shieldBadge" transform="translate(28,28)"/><g transform="translate(28,28) scale(0.85)"><path d="M0 -12 c12 0 16 8 16 18 c-12 0 -18 -6 -16 -18z" fill="#2f9e54"/><path d="M2 -8 c-4 6 -5 11 -4 16" stroke="#1f7d46" stroke-width="1.6" fill="none"/></g></g>
        <g transform="translate(74,0)"><use href="#shieldBadge" transform="translate(28,28)"/><g transform="translate(28,28) scale(0.95)" fill="#2f9e54"><g><path d="M0 -10 l4 6 -3 0 0 4 -2 0 0 -4 -3 0z"/></g><g transform="rotate(120)"><path d="M0 -10 l4 6 -3 0 0 4 -2 0 0 -4 -3 0z"/></g><g transform="rotate(240)"><path d="M0 -10 l4 6 -3 0 0 4 -2 0 0 -4 -3 0z"/></g></g></g>
        <g transform="translate(148,0)"><use href="#shieldBadge" transform="translate(28,28)"/><g transform="translate(28,28) scale(0.95)" fill="#2f9e54"><ellipse cx="-5" cy="-4" rx="4" ry="6.5"/><circle cx="-6" cy="-12" r="2"/><ellipse cx="5" cy="4" rx="4" ry="6.5"/><circle cx="6" cy="-4" r="2"/></g></g>
        <g transform="translate(222,0)"><use href="#shieldBadge" transform="translate(28,28)"/><g transform="translate(28,28) scale(0.92)"><path d="M0 -12 c10 14 10 22 0 26 c-10 -4 -10 -12 0 -26z" fill="#2b8fd9"/></g></g>
        <g transform="translate(296,0)"><circle cx="28" cy="28" r="28" fill="#eef2ee"/><text x="28" y="36" font-size="20" text-anchor="middle" fill="#9aa89d">+8</text></g>
      </g>

      <!-- My impact card -->
      <text x="24" y="548" fill="#16331f" font-size="13" font-weight="700">My impact so far</text>
      <g transform="translate(20,560)">
        <rect width="350" height="64" rx="16" fill="#0f3d24"/>
        <text x="20" y="30" fill="#ffffff" font-size="18" font-weight="800">3 bags</text>
        <text x="20" y="48" fill="#9fd9b6" font-size="10">litter collected</text>
        <line x1="120" y1="16" x2="120" y2="48" stroke="#2f6e4a" stroke-width="1"/>
        <text x="140" y="30" fill="#ffffff" font-size="18" font-weight="800">86 km</text>
        <text x="140" y="48" fill="#9fd9b6" font-size="10">travelled green</text>
        <line x1="240" y1="16" x2="240" y2="48" stroke="#2f6e4a" stroke-width="1"/>
        <text x="260" y="30" fill="#ffffff" font-size="18" font-weight="800">22 acts</text>
        <text x="260" y="48" fill="#9fd9b6" font-size="10">this month</text>
      </g>

      <!-- Recent activity list -->
      <text x="24" y="648" fill="#16331f" font-size="13" font-weight="700">Recent activity</text>
      <g transform="translate(20,660)">
        <rect width="350" height="40" rx="13" fill="#ffffff" stroke="#eef2ee"/>
        <circle cx="24" cy="20" r="12" fill="#d3f0ff"/><path d="M24 13 c5 7 5 11 0 13 c-5 -2 -5 -6 0 -13z" fill="#2b8fd9"/>
        <text x="46" y="18" fill="#16331f" font-size="12" font-weight="600">Beach clean</text>
        <text x="46" y="32" fill="#7a8a7e" font-size="10">7m ago</text>
        <text x="338" y="20" fill="#1f9d52" font-size="12" font-weight="800" text-anchor="end">+50</text>
        <text x="338" y="34" fill="#9aa89d" font-size="9" text-anchor="end">&#128205; Brighton</text>

        <rect y="48" width="350" height="40" rx="13" fill="#ffffff" stroke="#eef2ee"/>
        <circle cx="24" cy="68" r="12" fill="#e7f4ea"/><path d="M24 60 l5 9 h-10 z M24 64 l5 9 h-10 z" fill="#2f9e54"/><rect x="23" y="71" width="2" height="4" fill="#7a5a3a"/>
        <text x="46" y="66" fill="#16331f" font-size="12" font-weight="600">Nature walk + litter pick</text>
        <text x="46" y="80" fill="#7a8a7e" font-size="10">Yesterday</text>
        <text x="338" y="68" fill="#1f9d52" font-size="12" font-weight="800" text-anchor="end">+40</text>
        <text x="338" y="82" fill="#9aa89d" font-size="9" text-anchor="end">&#128205; Lake District</text>
      </g>

      <!-- ===== BOTTOM TAB BAR (Profile active) ===== -->
      <g transform="translate(0,759)">
        <rect width="390" height="88" fill="#ffffff"/>
        <line x1="0" y1="0" x2="390" y2="0" stroke="#e3e9e3" stroke-width="1"/>

        <g transform="translate(33,22)">
          <rect x="0" y="0" width="22" height="22" rx="4" fill="none" stroke="#9aa89d" stroke-width="2.2"/>
          <line x1="4" y1="7" x2="18" y2="7" stroke="#9aa89d" stroke-width="2.2"/>
          <line x1="4" y1="12" x2="18" y2="12" stroke="#9aa89d" stroke-width="2.2"/>
          <line x1="4" y1="17" x2="13" y2="17" stroke="#9aa89d" stroke-width="2.2"/>
        </g>
        <text x="44" y="62" fill="#9aa89d" font-size="10" font-weight="600" text-anchor="middle">Feed</text>

        <g transform="translate(112,23)" stroke="#9aa89d" stroke-width="2" fill="none"><path d="M2 4 h9 a3 3 0 0 1 3 3 v15 a3 3 0 0 0 -3 -2 h-9 z"/><path d="M24 4 h-9 a3 3 0 0 0 -3 3 v15 a3 3 0 0 1 3 -2 h9 z"/></g>
        <text x="124" y="62" fill="#9aa89d" font-size="10" font-weight="600" text-anchor="middle">Learn</text>

        <circle cx="195" cy="28" r="30" fill="url(#sprout)" filter="url(#camShadow)"/>
        <circle cx="195" cy="28" r="30" fill="#ffffff" opacity="0.08"/>
        <g transform="translate(195,28)" stroke="#ffffff" stroke-width="2.4" fill="none">
          <rect x="-13" y="-9" width="26" height="19" rx="5"/>
          <circle cx="0" cy="1" r="6"/>
          <rect x="-6" y="-13" width="9" height="5" rx="2" fill="#ffffff" stroke="none"/>
        </g>

        <g transform="translate(258,22)" stroke="#9aa89d" stroke-width="2" fill="none">
          <rect x="0" y="12" width="7" height="12" rx="1.5"/>
          <rect x="9" y="4" width="7" height="20" rx="1.5"/>
          <rect x="18" y="16" width="7" height="8" rx="1.5"/>
        </g>
        <text x="271" y="62" fill="#9aa89d" font-size="10" font-weight="600" text-anchor="middle">Ranks</text>

        <!-- Profile (ACTIVE) -->
        <circle cx="349" cy="34" r="26" fill="url(#tabGlow)"/>
        <g transform="translate(338,22)" stroke="#1f9d52" stroke-width="2.2" fill="none">
          <circle cx="11" cy="8" r="6"/>
          <path d="M0 24 a11 11 0 0 1 22 0"/>
        </g>
        <text x="349" y="62" fill="#1f9d52" font-size="10" font-weight="700" text-anchor="middle">Profile</text>
      </g>

      <rect x="125" y="833" width="140" height="5" rx="2.5" fill="#16331f" opacity="0.35"/>
    </g>
  </g>
</svg>